<svg xmlns="http://www.w3.org/2000/svg" width="56" height="46" viewBox="0 0 56 46">
  <path id="_" data-name="“" d="M44.439,46a11.752,11.752,0,0,1-10.658-5.841A22.352,22.352,0,0,1,30.71,28.111a30.6,30.6,0,0,1,4.516-16.429q4.7-7.3,14.09-11.683l1.626,3.286a25.136,25.136,0,0,0-9.755,7.484,16.843,16.843,0,0,0-3.974,10.4,12.253,12.253,0,0,0,.542,3.833,10.226,10.226,0,0,1,6.684-2.373,10.97,10.97,0,0,1,8.129,3.286A10.756,10.756,0,0,1,56,34.317a11.5,11.5,0,0,1-3.432,8.4A10.97,10.97,0,0,1,44.439,46Zm-30.71,0A11.752,11.752,0,0,1,3.071,40.159,22.352,22.352,0,0,1,0,28.111,30.6,30.6,0,0,1,4.516,11.683Q9.213,4.381,18.606,0l1.626,3.286a25.136,25.136,0,0,0-9.755,7.484A16.843,16.843,0,0,0,6.5,21.175a12.253,12.253,0,0,0,.542,3.833,10.226,10.226,0,0,1,6.684-2.373,10.97,10.97,0,0,1,8.129,3.286,10.756,10.756,0,0,1,3.432,8.4,11.5,11.5,0,0,1-3.432,8.4A10.97,10.97,0,0,1,13.729,46Z" fill="#010101"/>
</svg>
